<?xml version="1.0" standalone="no"?><!DOCTYPE svg PUBLIC "-//W3C//DTD SVG 1.1//EN" "http://www.w3.org/Graphics/SVG/1.1/DTD/svg11.dtd"><svg t="1556165353412" class="icon" style="" viewBox="0 0 1024 1024" version="1.1" xmlns="http://www.w3.org/2000/svg" p-id="9036" xmlns:xlink="http://www.w3.org/1999/xlink" width="200" height="200"><defs><style type="text/css"></style></defs><path d="M503.915789 725.099789a194.209684 194.209684 0 1 1 194.209685-194.209684 193.832421 193.832421 0 0 1-194.209685 194.209684z m0-328.757894a134.467368 134.467368 0 1 0 134.467369 134.467368 133.901474 133.901474 0 0 0-134.467369-134.386526z" fill="#83D2EA" p-id="9037"></path><path d="M614.453895 273.893053a35.974737 35.974737 0 0 1-29.884632-20.911158l-23.902316-101.591579h-110.48421l-26.947369 101.591579a28.348632 28.348632 0 0 1-35.866947 20.911158 30.261895 30.261895 0 0 1-23.95621-35.866948L402.324211 91.621053h203.183157l38.831158 146.405052a30.72 30.72 0 0 1-20.911158 35.866948zM605.507368 970.105263h-203.183157l-38.912-146.405052a29.372632 29.372632 0 1 1 56.778105-14.928843l26.947368 101.591579h110.484211l26.947368-101.591579a30.72 30.72 0 0 1 35.866948-20.911157 28.348632 28.348632 0 0 1 20.911157 35.866947z" fill="#208BB5" p-id="9038"></path><path d="M784.788211 438.245053a26.947368 26.947368 0 0 1-14.928843-2.991158 33.091368 33.091368 0 0 1-11.964631-41.822316l53.894737-92.618105-77.797053-77.716211-89.653895 53.894737a30.800842 30.800842 0 0 1-29.884631-53.894737l131.503158-74.698105 143.413894 143.413895-77.689263 131.449263a31.366737 31.366737 0 0 1-26.893473 14.982737zM264.865684 913.327158l-143.413895-143.413895 74.698106-131.47621a33.091368 33.091368 0 0 1 41.822316-11.964632 32.121263 32.121263 0 0 1 11.964631 41.822316l-53.894737 89.653895 77.689263 80.680421 89.653895-53.894737a30.800842 30.800842 0 1 1 29.884632 53.894737z" fill="#208BB5" p-id="9039"></path><path d="M790.797474 671.312842a35.974737 35.974737 0 0 1-29.884632-20.911158 30.72 30.72 0 0 1 20.911158-35.866947l101.591579-26.947369v-110.48421l-101.591579-26.947369a29.372632 29.372632 0 1 1 14.928842-56.778105L943.157895 432.208842v203.183158l-146.405053 38.831158c0-2.910316-2.991158-2.910316-5.955368-2.910316zM217.061053 671.285895h-8.973474L64.673684 632.454737v-203.183158l146.405053-38.912a29.372632 29.372632 0 1 1 14.928842 56.778105l-101.591579 29.884632v110.48421l101.591579 26.947369a28.348632 28.348632 0 0 1 20.911158 35.866947 29.642105 29.642105 0 0 1-29.857684 20.965053z" fill="#208BB5" p-id="9040"></path><path d="M742.965895 913.327158l-128.485053-74.698105a30.800842 30.800842 0 1 1 29.884632-53.894737l89.653894 53.894737 77.689264-77.689264-53.894737-89.653894a30.800842 30.800842 0 0 1 53.894737-29.884632l74.698105 131.476211zM223.043368 438.245053a35.651368 35.651368 0 0 1-26.947368-14.928842l-74.644211-131.503158 143.413895-143.413895 131.449263 74.698105a33.091368 33.091368 0 0 1 11.964632 41.822316 33.091368 33.091368 0 0 1-41.822316 11.964632l-92.618105-53.894737-77.689263 77.797052 53.894737 89.653895a30.234947 30.234947 0 0 1-11.964632 41.822316 22.824421 22.824421 0 0 1-15.036632 5.982316z" fill="#208BB5" p-id="9041"></path></svg>