<?xml version="1.0" standalone="no"?><!DOCTYPE svg PUBLIC "-//W3C//DTD SVG 1.1//EN" "http://www.w3.org/Graphics/SVG/1.1/DTD/svg11.dtd"><svg t="1556164991627" class="icon" style="" viewBox="0 0 1024 1024" version="1.1" xmlns="http://www.w3.org/2000/svg" p-id="5816" xmlns:xlink="http://www.w3.org/1999/xlink" width="200" height="200"><defs><style type="text/css"></style></defs><path d="M325.3 810l139.5-73.3c14.8-7.8 31.5-11.9 48.2-11.9 16.7 0 33.4 4.1 48.2 11.9L700.7 810l-26.6-155.1c-5.8-33.6 5.4-67.9 29.8-91.7l112.7-109.8-155.8-22.6c-33.7-4.9-62.9-26.1-78-56.7L513 232.9l-69.8 141.3c-15.1 30.5-44.3 51.6-78 56.6l-155.8 22.6 112.7 109.8c24.5 23.8 35.6 58.1 29.8 91.7L325.3 810m434.2 95.7c-2.3 0-4.7-0.6-6.9-1.7L533.7 789.1c-6.5-3.4-13.6-5.1-20.7-5.1s-14.2 1.7-20.7 5.1L273.4 904c-2.3 1.1-4.6 1.7-6.9 1.7-8.7 0-16.3-7.8-14.7-17.4l41.8-243.4c2.5-14.4-2.3-29.1-12.8-39.3l-177-172.4c-8.8-8.5-4-23.5 8.2-25.3l244.7-35.5c14.5-2.1 27.1-11.2 33.6-24.3l109.4-221.5c2.7-5.5 8-8.3 13.4-8.3 5.3 0 10.6 2.8 13.3 8.3L635.7 348c6.5 13.1 19.1 22.2 33.6 24.3L914 407.8c12.2 1.8 17.1 16.8 8.3 25.3L745.1 605.6c-10.5 10.2-15.3 24.9-12.8 39.3l41.8 243.4c1.6 9.6-6 17.4-14.6 17.4z" fill="#666666" p-id="5817"></path></svg>