<?xml version="1.0" standalone="no"?><!DOCTYPE svg PUBLIC "-//W3C//DTD SVG 1.1//EN" "http://www.w3.org/Graphics/SVG/1.1/DTD/svg11.dtd"><svg t="1556004721240" class="icon" style="" viewBox="0 0 1024 1024" version="1.1" xmlns="http://www.w3.org/2000/svg" p-id="5330" xmlns:xlink="http://www.w3.org/1999/xlink" width="200" height="200"><defs><style type="text/css"></style></defs><path d="M511.960091 960.171276c-247.12026 0-448.13239-201.031573-448.13239-448.171276 0-247.12026 201.01213-448.171276 448.151833-448.171276 247.12026 0 448.190719 200.992687 448.190719 448.171276 0.001023 247.139703-201.070458 448.171276-448.210162 448.171276z" fill="#FF9900" p-id="5331"></path><path d="M352.806301 452.472232h-94.567819c-19.288299 0-15.750729 22.688745-15.750729 22.688745l19.24839 299.333436c0 17.529235 19.308765 17.529235 19.308765 17.529235h76.997651c15.751752 0 15.751752-12.252045 15.751752-12.252045V478.719013c1.778506-22.728654-20.98801-26.246781-20.98801-26.246781z m392.102283 0h-148.778488c57.788148-213.660194-40.238446-220.577744-40.238447-220.577744-42.015929 0-33.320896 33.261545-36.758181 38.499849 0 104.982006-108.540042 185.596022-108.540042 185.596022V751.867066c0 29.723975 36.759205 40.238446 52.510957 40.238446h224.095871c21.007453 0 38.518269-56.009641 38.518269-56.009641 56.048527-188.995445 56.048527-248.581542 56.048527-248.581542 0.019443-36.800138-36.858466-35.042097-36.858466-35.042097z" fill="#FFFFFF" p-id="5332"></path></svg>